<?xml version="1.0" encoding="UTF-8" standalone="no"?>
<svg
   id="Layer_1"
   data-name="Layer 1"
   viewBox="0 0 63.026709 63.999997"
   version="1.1"
   width="63.026711"
   height="64"
   xmlns:xlink="http://www.w3.org/1999/xlink"
   xmlns="http://www.w3.org/2000/svg"
   xmlns:svg="http://www.w3.org/2000/svg">
  <defs
     id="defs59">
    <style
       id="style51">.cls-1{fill:url(#linear-gradient);}.cls-2{fill:url(#linear-gradient-2);}</style>
    <linearGradient
       id="linear-gradient"
       x1="241.25"
       y1="687.42999"
       x2="592.21002"
       y2="174.78999"
       gradientUnits="userSpaceOnUse">
      <stop
         offset="0.16"
         stop-color="#6800ff"
         id="stop53" />
      <stop
         offset="1"
         stop-color="#ae40c4"
         id="stop55" />
    </linearGradient>
    <linearGradient
       id="linear-gradient-2"
       x1="52.880001"
       y1="558.46002"
       x2="403.84"
       y2="45.830002"
       xlink:href="#linear-gradient"
       gradientTransform="matrix(0.10796744,0,0,0.10796744,3.9999646,3.40078)" />
    <linearGradient
       xlink:href="#linear-gradient"
       id="linearGradient172"
       gradientUnits="userSpaceOnUse"
       x1="241.25"
       y1="687.42999"
       x2="592.21002"
       y2="174.78999"
       gradientTransform="matrix(0.10796744,0,0,0.10796744,3.9999646,3.40078)" />
  </defs>
  <path
     class="cls-1"
     d="m 50.203544,49.19841 a 3.0479208,3.0479208 0 0 0 -2.14531,-0.89074 h -0.008 a 2.9863793,2.9863793 0 0 0 -2.06433,5.14249 2.8708542,2.8708542 0 0 0 2.00711,0.82919 h 0.15007 a 2.9388737,2.9388737 0 0 0 2.90649,-2.97126 2.9259176,2.9259176 0 0 0 -0.84647,-2.10968 z"
     id="path61"
     style="fill:url(#linearGradient172);stroke-width:0.107967" />
  <path
     class="cls-2"
     d="M 52.077864,12.3394 C 46.799334,7.0490001 39.462944,4 31.939774,4 h -0.0291 C 16.550144,4.0237 4.0291646,16.53933 4.0000146,31.87611 a 27.855599,27.855599 0 0 0 2.3159,11.14872 c 0.3238998,0.73849 0.6812698,1.45972 1.0634798,2.17122 l -0.0302,0.014 c 0.3239,0.56467 0.55387,0.95443 0.91016,1.56877 l -0.99438,7.6063 a 4.0811692,4.0811692 0 0 0 0.014,1.37982 3.2508996,3.2508996 0 0 0 3.5532096,2.57287 9.0692648,9.0692648 0 0 0 0.94147,-0.17275 l 0.1965,-0.0443 q 3.26062,-0.70934 6.518,-1.42517 c 0.15007,-0.0324 0.23645,-0.0583 0.29799,-0.027 l 0.18354,0.10149 0.0184,0.009 c 0.43187,0.23105 0.88209,0.43187 1.32692,0.63485 0.40596,0.1911 0.80975,0.38868 1.22219,0.55819 0.0345,0.014 0.068,0.0335 0.10257,0.0475 0.122,0.0486 0.25048,0.081 0.37357,0.12848 0.55711,0.21593 1.11206,0.43942 1.67889,0.61865 a 23.981727,23.981727 0 0 0 4.88661,0.95767 c 0.14791,0.0162 0.29583,0.0367 0.44482,0.0497 0.58518,0.0507 1.17469,0.0874 1.77283,0.10796 l -0.0302,-0.0292 c 0.20513,0 0.40811,0.0292 0.61433,0.0292 0.46642,-0.0119 0.95011,-0.0119 1.44029,0 a 26.059021,26.059021 0 0 0 7.59551,-1.17468 c 0.10796,-0.0335 0.66184,-0.18247 0.82379,-0.24401 a 2.9248379,2.9248379 0 0 0 1.89698,-2.77692 2.9259176,2.9259176 0 0 0 -0.84754,-2.10969 3.0479208,3.0479208 0 0 0 -2.14639,-0.88965 h -0.005 a 2.9237582,2.9237582 0 0 0 -0.89397,0.15224 l -0.081,0.0292 a 20.664968,20.664968 0 0 1 -6.51583,1.06996 c -0.38653,-0.009 -0.76765,-0.009 -1.13474,0 a 20.729748,20.729748 0 0 1 -7.22086,-1.29561 q -0.24185,-0.0907 -0.48154,-0.18571 a 21.257709,21.257709 0 0 1 -2.37528,-1.12934 c -0.28935,-0.16087 -0.57655,-0.3239 -0.83459,-0.46858 -0.6478,-0.36601 -1.26862,-0.53983 -2.06002,-0.38652 -0.39516,0.0767 -0.78924,0.16519 -1.18224,0.2548 l -3.61691,0.78925 c 0,0 0,-0.008 0,-0.01 l 0.37573,-2.97558 c 0.0583,-0.48046 0.11768,-0.96307 0.18246,-1.44245 0.13064,-0.96091 0.0659,-1.83544 -0.39516,-2.55991 -0.10797,-0.16195 -0.3239,-0.50744 -0.53984,-0.86374 a 22.363296,22.363296 0 0 1 -1.48671,-2.7834 21.942223,21.942223 0 0 1 -1.9185796,-8.9926 C 9.9796744,19.8119 19.837114,9.9620301 31.930544,9.9436701 h 0.0238 a 22.524167,22.524167 0 0 1 15.85394,6.5654999 c 3.293,3.30813 5.34654,7.57392 5.99543,12.24135 a 23.065084,23.065084 0 0 1 0.244,3.30489 c 0,0.75577 -0.0486,1.49858 -0.12632,2.23384 -0.0993,0.93392 -0.45994,2.93996 -0.48153,3.03065 -0.0356,0.15007 -0.0615,0.30878 -0.0993,0.45778 -0.0378,0.14899 -0.0907,0.25264 -0.12632,0.38544 a 3.1191793,3.1191793 0 0 1 -0.691,1.01814 2.9561485,2.9561485 0 0 1 -2.00171,0.82055 c -0.0497,0 -0.10041,0 -0.15116,0 a 2.8719339,2.8719339 0 0 1 -2.00603,-0.82811 3.0230883,3.0230883 0 0 1 -0.91988,-2.15935 2.9291566,2.9291566 0 0 1 0.0615,-0.59598 c 0.0151,-0.0745 0.0713,-0.38221 0.0918,-0.4675 a 16.889346,16.889346 0 0 0 0.49449,-3.91922 c 0.0227,-4.34245 -1.59252,-8.37071 -4.55407,-11.3463 A 16.442361,16.442361 0 0 0 31.964074,15.8862 h -0.0173 c -8.82634,0.013 -16.02129,7.20467 -16.03748,16.01805 -0.014,4.33597 1.79226,8.58449 4.9557,11.64753 2.97558,2.87517 6.78576,4.43962 10.78055,4.43962 0.26776,-0.006 0.54632,-0.006 0.82703,0 3.86739,0 7.84492,-1.61951 10.74708,-4.3824 0.2073,-0.19866 0.39192,-0.41459 0.58734,-0.62189 0.14252,0.15763 0.28288,0.3185 0.43727,0.4675 a 8.6287577,8.6287577 0 0 0 4.99457,2.41307 8.3350862,8.3350862 0 0 0 1.00194,0.0669 c 0.149,0 0.30123,0 0.45023,0 2.15287,0 4.36944,-0.90153 5.98139,-2.4433 a 8.6535902,8.6535902 0 0 0 2.15935,-3.36319 13.087813,13.087813 0 0 0 0.47506,-1.62815 c 0.3876,-2.11508 0.68019,-4.21721 0.69315,-6.41326 0.0443,-7.5588 -2.77153,-14.56805 -7.92157,-19.74725 z m -13.01116,26.95191 c -1.82789,1.74368 -4.33273,2.76181 -6.76848,2.76181 -0.17706,0 -0.35305,0 -0.52148,0 -2.51564,0 -4.91576,-0.9879 -6.78791,-2.79852 a 10.234233,10.234233 0 0 1 -3.12134,-7.33638 c 0.0108,-5.55061 4.54219,-10.07984 10.10143,-10.08848 h 0.0108 a 10.355157,10.355157 0 0 1 7.2878,3.01769 c 1.86568,1.87539 2.88273,4.41155 2.86762,7.14636 -0.0162,2.83199 -1.10235,5.42321 -3.06844,7.29752 z"
     id="path63"
     style="fill:url(#linear-gradient-2);stroke-width:0.107967" />
</svg>
